<?xml version="1.0" encoding="utf-8"?>
<!-- Generator: Adobe Illustrator 23.0.1, SVG Export Plug-In . SVG Version: 6.00 Build 0)  -->
<svg version="1.1" id="Layer_1" xmlns="http://www.w3.org/2000/svg" xmlns:xlink="http://www.w3.org/1999/xlink" x="0px" y="0px"
	 viewBox="0 0 792 356.1" style="enable-background:new 0 0 792 356.1;" xml:space="preserve">
<style type="text/css">
	.st0{fill:#FF9700;}
</style>
<path class="st0" d="M451,61.7c0,0-54.4,67-51.6,71.3c3.9-4.3-19.5-72-19.5-72S375,46.7,359.6,0h-55.5H169.5H68L57.9,43.8h76.4h18.1
	c49.2,0,79.2,20.3,70.8,56.3c-9.1,39.2-52,55.9-97.7,55.9h-17.1l22-95.9H54L21.6,200.3h108.5c81.6,0,159.1-43.8,173-100.1
	c2.4-10.4,2.1-36.4-4.2-51.7c0-0.4-0.4-1.1-0.7-2.1c-0.3-0.4-0.7-2.9,0.7-3.2c0.7-0.4,2.1,1.1,2.1,1.4c0,0,0.7,1.8,1.4,3.2
	L371.5,247L547.3,44.2l74.3-0.4h18.1c49.2,0,79.6,20.3,71.2,56.3c-9.1,39.2-52.3,55.9-98,55.9h-17.4l22.3-95.9h-76.4l-32.5,140.1
	h108.5c81.6,0,159.8-43.8,172.7-100.1C803.3,43.8,746.1,0,663.8,0H592h-90C459.1,51.7,451,61.7,451,61.7L451,61.7z"/>
<path class="st0" d="M373.9,247.7C167.4,247.7,0,272,0,301.9s167.4,54.2,373.9,54.2c206.9,0,374.3-24.2,374.3-54.2
	C748.2,272,580.8,247.7,373.9,247.7z M360.7,321.2c-47.4,0-85.5-8.2-85.5-18.2s38-18.2,85.5-18.2c47.1,0,85.1,8.2,85.1,18.2
	C445.8,312.9,407.7,321.2,360.7,321.2z"/>
</svg>
